<?xml version="1.0" encoding="utf-8"?>
<!-- Generator: Adobe Illustrator 20.1.0, SVG Export Plug-In . SVG Version: 6.00 Build 0)  -->
<svg version="1.1"
	 id="Слой_1" xmlns:cc="http://creativecommons.org/ns#" xmlns:dc="http://purl.org/dc/elements/1.1/" xmlns:inkscape="http://www.inkscape.org/namespaces/inkscape" xmlns:rdf="http://www.w3.org/1999/02/22-rdf-syntax-ns#" xmlns:sodipodi="http://sodipodi.sourceforge.net/DTD/sodipodi-0.dtd" xmlns:svg="http://www.w3.org/2000/svg"
	 xmlns="http://www.w3.org/2000/svg" xmlns:xlink="http://www.w3.org/1999/xlink" x="0px" y="0px" viewBox="0 0 90.2 88.8"
	 style="enable-background:new 0 0 90.2 88.8;" xml:space="preserve">
<style type="text/css">
	.st0{fill:#231F20;stroke:#000000;stroke-width:2.5;stroke-miterlimit:10;}
</style>
<g>
	<g>
		<path class="st0" d="M17.8,80c-0.4,0-0.8-0.2-1-0.6c-0.2-0.4-0.2-1,0.2-1.3c3.4-3.5,5.6-7.5,6.5-11.7C11.3,60.9,3.9,51.2,3.9,40.9
			c0-16.5,18.6-30,41.5-30s41.5,13.4,41.5,30s-18.6,30-41.5,30c-2,0-3.9-0.1-5.8-0.3c-5.7,4.7-13.1,8-21.5,9.5
			C17.9,80,17.9,80,17.8,80z M45.3,13.2c-21.6,0-39.2,12.4-39.2,27.7c0,9.6,7.3,18.7,19.1,23.7c0.5,0.2,0.8,0.7,0.7,1.2
			c-0.6,4-2.3,7.8-5,11.2c6.7-1.7,12.8-4.6,17.4-8.6c0.2-0.2,0.6-0.3,0.9-0.3c2,0.2,4.1,0.3,6.1,0.3c21.6,0,39.2-12.4,39.2-27.7
			S66.9,13.2,45.3,13.2z"/>
		<g>
			<path class="st0" d="M26.1,48.9c-3.7,0-6.7-3-6.7-6.7c0-3.7,3-6.7,6.7-6.7c3.7,0,6.7,3,6.7,6.7C32.9,45.9,29.8,48.9,26.1,48.9z
				 M26.1,37.8c-2.4,0-4.4,2-4.4,4.4s2,4.4,4.4,4.4s4.4-2,4.4-4.4S28.6,37.8,26.1,37.8z"/>
			<path class="st0" d="M45.3,48.9c-3.7,0-6.7-3-6.7-6.7c0-3.7,3-6.7,6.7-6.7c3.7,0,6.7,3,6.7,6.7C52.1,45.9,49,48.9,45.3,48.9z
				 M45.3,37.8c-2.4,0-4.4,2-4.4,4.4s2,4.4,4.4,4.4s4.4-2,4.4-4.4C49.7,39.8,47.8,37.8,45.3,37.8z"/>
			<path class="st0" d="M64.5,48.9c-3.7,0-6.7-3-6.7-6.7c0-3.7,3-6.7,6.7-6.7c3.7,0,6.7,3,6.7,6.7C71.3,45.9,68.2,48.9,64.5,48.9z
				 M64.5,37.8c-2.4,0-4.4,2-4.4,4.4s2,4.4,4.4,4.4c2.4,0,4.4-2,4.4-4.4S67,37.8,64.5,37.8z"/>
		</g>
	</g>
</g>
</svg>
