<?xml version="1.0" encoding="utf-8"?>
<!-- Generator: Adobe Illustrator 20.1.0, SVG Export Plug-In . SVG Version: 6.00 Build 0)  -->
<svg version="1.1"
	 id="Слой_1" xmlns:cc="http://creativecommons.org/ns#" xmlns:dc="http://purl.org/dc/elements/1.1/" xmlns:inkscape="http://www.inkscape.org/namespaces/inkscape" xmlns:rdf="http://www.w3.org/1999/02/22-rdf-syntax-ns#" xmlns:sodipodi="http://sodipodi.sourceforge.net/DTD/sodipodi-0.dtd" xmlns:svg="http://www.w3.org/2000/svg"
	 xmlns="http://www.w3.org/2000/svg" xmlns:xlink="http://www.w3.org/1999/xlink" x="0px" y="0px" viewBox="0 0 90.2 88.8"
	 style="enable-background:new 0 0 90.2 88.8;" xml:space="preserve">
<style type="text/css">
	.st0{fill:#231F20;stroke:#000000;stroke-width:2.5;stroke-miterlimit:10;}
	.st1{stroke:#000000;stroke-width:2;stroke-miterlimit:10;}
	.st2{stroke:#000000;stroke-width:1.6;stroke-miterlimit:10;}
</style>
<g transform="translate(0,-952.36218)">
	<path class="st2" d="M44.6,958.1c-21.4,0-38.9,17.4-38.9,38.9s17.4,38.9,38.9,38.9s38.9-17.4,38.9-38.9c0-9.2-3.9-18.3-9.5-25.3
		l9.1,1.7c1,0.3,2-0.3,2.3-1.2c0.3-1-0.3-2-1.2-2.3c-0.1,0-0.3-0.1-0.4-0.1l-14.5-2.7c-0.2,0-0.4-0.1-0.5,0
		c-0.8,0.1-1.5,0.7-1.6,1.6l-1.8,14.5c-0.1,1,0.5,1.9,1.6,2c1,0.1,1.9-0.5,2-1.6l1.4-10.7c5.5,6.4,9.5,15.4,9.5,23.9
		c0,19.5-15.7,35.2-35.2,35.2s-35.2-15.7-35.2-35.2c0-19.5,15.7-35.2,35.2-35.2c1,0,1.8-0.8,1.8-1.8C46.4,959,45.6,958.1,44.6,958.1
		z M43.5,972.3c-0.9,0.1-1.6,0.9-1.6,1.8v25.5c0,1,0.8,1.8,1.8,1.8h19.7c1,0,1.8-0.8,1.8-1.8c0-1-0.8-1.8-1.8-1.8c0,0,0,0-0.1,0
		H45.5v-23.7c0-1-0.8-1.8-1.8-1.8C43.7,972.3,43.6,972.3,43.5,972.3z"/>
</g>
</svg>
