<?xml version="1.0" encoding="utf-8"?>
<!-- Generator: Adobe Illustrator 20.1.0, SVG Export Plug-In . SVG Version: 6.00 Build 0)  -->
<svg version="1.1"
	 id="Слой_1" xmlns:cc="http://creativecommons.org/ns#" xmlns:dc="http://purl.org/dc/elements/1.1/" xmlns:inkscape="http://www.inkscape.org/namespaces/inkscape" xmlns:rdf="http://www.w3.org/1999/02/22-rdf-syntax-ns#" xmlns:sodipodi="http://sodipodi.sourceforge.net/DTD/sodipodi-0.dtd" xmlns:svg="http://www.w3.org/2000/svg"
	 xmlns="http://www.w3.org/2000/svg" xmlns:xlink="http://www.w3.org/1999/xlink" x="0px" y="0px" viewBox="0 0 90.2 88.8"
	 style="enable-background:new 0 0 90.2 88.8;" xml:space="preserve">
<style type="text/css">
	.st0{fill:#231F20;stroke:#000000;stroke-width:2.5;stroke-miterlimit:10;}
	.st1{stroke:#000000;stroke-width:2;stroke-miterlimit:10;}
</style>
<g>
	<path class="st1" d="M29.9,16.1h53.5c0.9,0,1.3-0.9,1.3-1.3c0-0.4-0.4-1.3-1.3-1.3H29.9c-0.9,0-1.3,0.9-1.3,1.3
		C28.1,15.2,29,16.1,29.9,16.1z"/>
	<path class="st1" d="M83.4,42.7H29.9c-0.9,0-1.3,0.4-1.3,1.3c0,0.9,0.4,1.3,1.3,1.3h53.5c0.9,0,1.3-0.4,1.3-1.3
		C84.7,43.1,84.3,42.7,83.4,42.7z"/>
	<path class="st1" d="M83.4,71.9H29.9c-0.9,0-1.3,0.4-1.3,1.3c0,0.9,0.4,1.3,1.3,1.3h53.5c0.9,0,1.3-0.4,1.3-1.3
		C84.7,72.8,84.3,71.9,83.4,71.9z"/>
	<path class="st1" d="M12,7.2c-4,0-7.2,3.1-7.2,7.2s3.1,7.2,7.2,7.2s7.2-3.1,7.2-7.2C19.1,10.3,16,7.2,12,7.2z M16,14.3
		c0,2.2-1.8,4-4,4s-4-1.3-4-4c0-2.2,1.8-4,4-4S16,12.1,16,14.3z"/>
	<path class="st1" d="M12,36.8c-4,0-7.2,3.1-7.2,7.2s3.1,7.2,7.2,7.2s7.2-3.1,7.2-7.2C19.1,40,16,36.8,12,36.8z M16,44
		c0,2.2-1.8,4-4,4s-4-1.8-4-4c0-2.2,1.8-4,4-4S16,41.8,16,44z"/>
	<path class="st1" d="M12,66.5c-4,0-7.2,3.1-7.2,7.2c0,4,3.1,7.2,7.2,7.2s7.2-3.1,7.2-7.2C19.1,69.6,16,66.5,12,66.5z M16,73.7
		c0,2.2-1.8,4-4,4s-4-1.8-4-4s1.8-4,4-4S16,71.4,16,73.7z"/>
</g>
</svg>
