<?xml version="1.0" encoding="utf-8"?>
<!-- Generator: Adobe Illustrator 20.1.0, SVG Export Plug-In . SVG Version: 6.00 Build 0)  -->
<svg version="1.1"
	 id="Слой_1" xmlns:cc="http://creativecommons.org/ns#" xmlns:dc="http://purl.org/dc/elements/1.1/" xmlns:inkscape="http://www.inkscape.org/namespaces/inkscape" xmlns:rdf="http://www.w3.org/1999/02/22-rdf-syntax-ns#" xmlns:sodipodi="http://sodipodi.sourceforge.net/DTD/sodipodi-0.dtd" xmlns:svg="http://www.w3.org/2000/svg"
	 xmlns="http://www.w3.org/2000/svg" xmlns:xlink="http://www.w3.org/1999/xlink" x="0px" y="0px" viewBox="0 0 90.2 88.8"
	 style="enable-background:new 0 0 90.2 88.8;" xml:space="preserve">
<style type="text/css">
	.st0{fill:#231F20;stroke:#000000;stroke-width:2.5;stroke-miterlimit:10;}
	.st1{stroke:#000000;stroke-width:2;stroke-miterlimit:10;}
	.st2{stroke:#000000;stroke-width:1.6;stroke-miterlimit:10;}
	.st3{stroke:#000000;stroke-miterlimit:10;}
</style>
<path class="st3" d="M44.9,42.5c9.6,0,17.3-9.3,17.3-20.9C62.2,10.6,55.1,3,44.9,3s-17.3,7.6-17.3,18.5
	C27.6,33.1,35.3,42.5,44.9,42.5z M44.9,6.4c8.3,0,13.9,6.1,13.9,15.2c0,9.7-6.3,17.5-13.9,17.5S31,31.2,31,21.5
	C31,12.4,36.6,6.4,44.9,6.4z M77.1,71.8c0-2.7-0.1-3.7-0.1-3.9c-1.5-13.2-12.7-20.5-31.6-20.5h-0.4h-0.1c-0.1,0-0.2,0-0.3,0
	c-18.9,0-30.1,7.3-31.6,20.5c0,0.3,0,1.1-0.1,3.6V73v0.1c0,0.1,0,0.1,0,0.2v0.1v0.1c0,0,0,0.1,0.1,0.1c0,0,0,0.1,0.1,0.1l0.1,0.1
	l0.1,0.1l0.1,0.1c0,0,0,0,0.1,0.1l0,0l0,0c8.9,6.7,19.4,10.2,31.4,10.2l0,0c11.7,0,22.6-3.5,31.4-10.2l0,0l0,0c0,0,0,0,0.1-0.1
	l0.1-0.1l0.1-0.1l0.1-0.1c0,0,0-0.1,0.1-0.1c0,0,0-0.1,0.1-0.1v-0.1v-0.1c0-0.1,0-0.1,0-0.2V73L77.1,71.8z M44.9,81.2L44.9,81.2
	c-11,0-20.7-3-28.8-9v-0.7c0-1.2,0-3,0.1-3.3c1.6-14.4,16.2-17.4,28.2-17.4h0.4h0.4c12,0,26.6,3,28.2,17.4c0,0.3,0.1,2.5,0.1,3.7
	v0.3C65.5,78.1,55.6,81.2,44.9,81.2z"/>
</svg>
